<?xml version="1.0" encoding="UTF-8" standalone="no"?>
<!-- Created with Inkscape (http://www.inkscape.org/) -->

<svg
   xmlns:dc="http://purl.org/dc/elements/1.1/"
   xmlns:cc="http://creativecommons.org/ns#"
   xmlns:rdf="http://www.w3.org/1999/02/22-rdf-syntax-ns#"
   xmlns:svg="http://www.w3.org/2000/svg"
   xmlns="http://www.w3.org/2000/svg"
   version="1.1"
   width="744.09448"
   height="1052.3622"
   id="svg2">
  <defs
     id="defs4" />
  <metadata
     id="metadata7">
    <rdf:RDF>
      <cc:Work
         rdf:about="">
        <dc:format>image/svg+xml</dc:format>
        <dc:type
           rdf:resource="http://purl.org/dc/dcmitype/StillImage" />
        <dc:title></dc:title>
      </cc:Work>
    </rdf:RDF>
  </metadata>
  <g
     id="layer1">
    <path
       d="m 157.03365,491.1178 c -36.56919,-91.39171 -48.8471,-119.77367 -51.75571,-119.63997 -2.09729,0.096 -20.201463,2.97964 -40.231541,6.40717 -20.030068,3.42754 -36.866589,5.89037 -37.414479,5.47295 -0.547898,-0.41741 1.397672,-11.93091 4.323484,-25.58554 l 5.319664,-24.8266 8.693649,-2.32425 c 41.305797,-11.04312 235.920773,-58.07751 236.977413,-57.27252 0.74717,0.56922 -4.98011,16.27763 -12.72731,34.90756 l -14.08578,33.8726 -38.63567,5.13881 c -21.24962,2.82635 -39.10198,5.5846 -39.67191,6.12948 -0.56992,0.54488 5.49022,58.53496 13.46699,128.86686 7.97676,70.3319 14.31882,128.05452 14.09345,128.27245 -0.22536,0.21806 -21.98387,-53.52059 -48.35225,-119.419 l 0,0 z"
       id="path3875"
       style="fill:#286090;fill-opacity:1;stroke:#286090;stroke-width:6.50040388;stroke-miterlimit:4;stroke-opacity:1;stroke-dasharray:none" />
    <path
       d=""
       id="path3879"
       style="fill:#286090;fill-opacity:1;stroke:#286090;stroke-width:8.16285706;stroke-miterlimit:4;stroke-opacity:1;stroke-dasharray:none" />
    <path
       d="m 380.79477,568.37677 -16.48521,-33.48602 7.67318,-49.1204 c 4.22026,-27.01622 8.1638,-50.171 8.76342,-51.45506 0.59962,-1.28407 7.72906,-5.06018 15.8432,-8.39136 l 14.75298,-6.0567 -0.68407,7.04866 c -0.37624,3.87677 -3.4132,43.90581 -6.74882,88.95344 -3.33561,45.04763 -6.19182,82.82474 -6.34711,83.94912 -0.1553,1.12438 -7.70071,-13.02437 -16.76757,-31.44168 z"
       id="path3887"
       style="fill:#286090;fill-opacity:1;stroke:#286090;stroke-width:5.38960791;stroke-miterlimit:4;stroke-opacity:1;stroke-dasharray:none" />
    <path
       d="m 509.34264,616.16011 c 0,-0.62868 30.89562,-30.30973 68.65697,-65.95786 37.76132,-35.64815 67.45695,-65.11175 65.99028,-65.4747 -1.46667,-0.36292 -24.73946,1.53459 -51.71732,4.21672 -26.97785,2.68211 -49.44512,4.58371 -49.92728,4.22578 -0.87229,-0.64753 76.76495,-63.789 79.41973,-64.59115 0.76566,-0.23134 12.84289,14.74231 26.83829,33.27479 l 25.44616,33.6954 -9.78469,7.60756 c -47.34633,36.8116 -74.08617,58.62677 -73.48971,59.9551 0.39147,0.87184 8.3883,4.01595 17.77073,6.98694 9.38242,2.97095 22.01539,7.07565 28.07326,9.12155 l 11.0143,3.71977 -64.86202,16.16587 c -35.67411,8.89121 -66.78952,16.62293 -69.14536,17.18156 -2.35585,0.55866 -4.28334,0.50136 -4.28334,-0.12733 z"
       id="path3889"
       style="fill:#286090;fill-opacity:1;stroke:#286090;stroke-width:6.02502871;stroke-miterlimit:4;stroke-opacity:1;stroke-dasharray:none" />
    <g
       transform="matrix(0.44711529,0,0,0.64822354,143.17869,96.672393)"
       id="g3913">
      <path
         d="m 251.95111,773.23032 c -0.37774,-1.73725 -25.59888,-55.17104 -56.04695,-118.74175 -30.44806,-63.57071 -54.52857,-116.64274 -53.51228,-117.93783 3.17066,-4.0403 191.07893,51.80365 191.0707,56.78379 -0.0101,6.13467 -80.61343,184.02609 -81.51147,179.89579 z"
         id="path3877"
         style="fill:#286090;fill-opacity:1;stroke:#286090;stroke-width:13.28000641;stroke-miterlimit:4;stroke-opacity:1;stroke-dasharray:none" />
      <path
         d="m 394.34262,770.72763 c 0.38283,-1.73661 25.94426,-55.15082 56.80312,-118.69824 30.85885,-63.54741 55.26424,-116.59999 54.23424,-117.89461 -3.21344,-4.03882 -193.65689,51.78467 -193.64855,56.76298 0.0102,6.13242 81.70103,183.95866 82.61119,179.82987 z"
         id="path3877-7"
         style="fill:#286090;fill-opacity:1;stroke:#286090;stroke-width:13.36684036;stroke-miterlimit:4;stroke-opacity:1;stroke-dasharray:none" />
    </g>
    <g
       transform="matrix(0.65573942,0.18903438,-0.19943595,0.69182132,543.81229,-106.38579)"
       id="g3949">
      <path
         d="m 126.02659,959.70908 c -1.3627,-0.694 -3.00694,-2.3583 -3.70308,-3.74825 -0.7412,-1.47991 -2.43793,-10.22351 -4.15832,-21.42857 -2.90037,-18.89048 -13.8046,-96.45334 -14.72199,-104.719 l -0.48412,-4.36185 -6.88361,-0.45588 c -3.785987,-0.25073 -10.419327,-0.48101 -14.740756,-0.51172 -15.052874,-0.10698 -18.518462,-1.48723 -24.644339,-9.81514 -3.47337,-4.72192 -8.927693,-14.30247 -8.427396,-14.80277 1.538652,-1.53865 22.949398,-4.92152 38.912704,-6.14815 10.50605,-0.80729 10.903265,-0.89484 10.587684,-2.33355 -0.885034,-4.03481 -4.642091,-36.27544 -4.293052,-36.8402 0.528257,-0.85474 29.309925,-21.7301 39.089725,-28.3518 6.59725,-4.46687 14.04915,-8.8028 15.12882,-8.8028 0.4573,0 2.32806,6.86708 2.85253,10.47095 0.44499,3.05781 3.2908,50.12209 3.29242,54.45041 l 7.1e-4,2.42136 3.75,-0.42328 c 2.0625,-0.2328 12.90447,-1.57847 24.09327,-2.99037 11.1888,-1.4119 21.47451,-2.47175 22.85715,-2.35522 l 2.51406,0.21187 3.78276,13.21428 c 2.08051,7.26786 5.23268,18.83027 7.00481,25.69424 2.93262,11.35888 3.11721,12.55661 2.05485,13.33343 -2.97595,2.17606 -13.14442,2.05822 -43.19956,-0.50065 -8.83929,-0.75256 -17.48393,-1.57604 -19.21032,-1.82995 l -3.13889,-0.46165 0.47034,24.20373 c 0.2587,13.31204 0.66635,28.38228 0.9059,33.48942 l 0.43555,9.28572 30.40902,15.35714 c 31.39631,15.85574 48.91318,25.39272 53.08421,28.90143 3.03652,2.55434 4.55464,5.86641 3.35274,7.31462 -2.77694,3.346 -7.73785,4.00534 -68.80855,9.14513 -20.49619,1.72499 -38.99537,3.54544 -43.57143,4.28773 -1.26742,0.20558 -3.14419,-0.16237 -4.59384,-0.90066 l 0,0 z m 26.57172,-131.35963 c -0.4836,-0.19566 -1.44788,-0.20757 -2.14286,-0.0265 -0.69498,0.1811 -0.29931,0.34118 0.87926,0.35574 1.17858,0.0146 1.74719,-0.13362 1.2636,-0.32928 l 0,4e-5 z m -3.82312,-0.51127 c -0.16369,-0.14603 -3.02976,-0.47935 -6.36905,-0.7407 -4.22132,-0.33038 -5.74493,-0.25281 -5,0.25457 0.96012,0.65395 12.09065,1.12987 11.36905,0.48613 l 0,0 z m -17.08333,-1.09868 c -0.58929,-0.33355 -6.85715,-0.77042 -13.92857,-0.97081 l -12.85715,-0.36435 11.42857,0.88285 c 14.96738,1.15621 16.69038,1.20696 15.35715,0.45231 z"
         id="path3947"
         style="fill:#286093;fill-opacity:1;stroke:#286093;stroke-width:2.04071426;stroke-miterlimit:4;stroke-opacity:1;stroke-dasharray:none" />
    </g>
    <path
       d="m 191.15255,581.10721 c -23.81958,-59.07313 -75.62076,-185.34388 -79.83993,-194.61809 -2.38023,-5.23202 -5.29539,-10.11083 -6.47813,-10.84181 -1.18274,-0.73097 -18.881886,1.20432 -39.331435,4.30064 -20.449548,3.09633 -37.816971,4.99371 -38.594273,4.21641 -1.065471,-1.06547 6.775207,-51.82648 8.194292,-53.05032 0.609082,-0.52528 176.468746,-43.48795 210.856226,-51.51236 20.25865,-4.72741 37.43472,-7.99447 38.16906,-7.26014 1.54127,1.54126 -3.93948,17.32847 -16.97946,48.90906 -5.04694,12.22285 -9.25724,22.35211 -9.35623,22.50947 -0.099,0.15736 -17.45358,2.74802 -38.56577,5.75702 -21.11218,3.009 -38.53152,5.60766 -38.70962,5.7748 -0.57115,0.536 24.88497,239.08869 26.47637,248.11361 0.55175,3.12897 -0.0709,5.76369 -1.49086,6.30831 -1.55494,0.59639 -6.75394,-9.76761 -14.35024,-28.6066 l 0,0 z"
       id="path4017"
       style="fill:#ffffff;fill-opacity:1;stroke:#ffffff;stroke-width:5.77201176;stroke-miterlimit:4;stroke-opacity:0;stroke-dasharray:none" />
    <path
       d="m 198.82838,595.81758 c -2.91421,-6.56003 -22.99284,-55.11134 -44.61916,-107.89181 -21.62633,-52.78047 -41.23419,-99.82832 -43.57303,-104.55078 -5.06521,-10.22741 -3.43142,-10.06167 -44.667101,-4.53121 -41.605936,5.58012 -38.226402,6.28221 -36.537631,-7.59063 2.793196,-22.94542 6.176293,-37.58134 9.066748,-39.22449 2.906658,-1.65236 174.267114,-43.78231 216.895154,-53.32492 24.64628,-5.51726 27.47315,-5.8129 27.47315,-2.87324 0,4.15175 -24.57016,64.57633 -26.82504,65.96992 -1.2811,0.79176 -18.56323,3.90607 -38.40474,6.92067 -19.8415,3.01461 -36.5266,5.93224 -37.07799,6.48364 -0.5514,0.55139 5.00063,57.12374 12.33784,125.71634 7.33721,68.59259 12.86562,125.18855 12.28537,125.7688 -0.58025,0.58026 -3.43936,-4.31228 -6.35357,-10.87229 l 0,0 z"
       id="path4019"
       style="fill:#ffffff;fill-opacity:1;stroke:#ffffff;stroke-width:5.77201176;stroke-miterlimit:4;stroke-opacity:0;stroke-dasharray:none" />
    <path
       d="m 199.69978,597.83954 c -2.43312,-5.44977 -23.20417,-55.52325 -46.15788,-111.2744 -22.95371,-55.75116 -43.26883,-103.70815 -45.1447,-106.5711 -4.12206,-6.29104 -4.72813,-6.30797 -41.70333,-1.16474 -41.761533,5.80901 -38.961127,6.37838 -37.262412,-7.57615 2.791701,-22.93313 6.175759,-37.58142 9.066748,-39.24647 3.392434,-1.95385 222.864304,-55.39136 235.782014,-57.40873 6.24628,-0.9755 8.58629,-0.6511 8.58629,1.19031 0,4.39104 -24.44445,64.54087 -26.82747,66.01366 -1.25093,0.77312 -18.5563,3.91557 -38.45635,6.98322 -19.90006,3.06766 -36.5657,5.96133 -37.03475,6.43038 -0.46905,0.46905 5.11438,57.01001 12.40762,125.64656 7.29325,68.63655 12.78966,125.26451 12.21426,125.83994 -0.57541,0.5754 -3.03693,-3.41272 -5.47004,-8.86248 l 0,0 z"
       id="path4021"
       style="fill:#ffffff;fill-opacity:1;stroke:#ffffff;stroke-width:5.77201176;stroke-miterlimit:4;stroke-opacity:0;stroke-dasharray:none" />
    <path
       d="m 231.57544,530.83295 c -29.47257,-91.87923 -28.12023,-87.40792 -26.82739,-88.70076 1.67616,-1.67616 13.79896,2.73496 48.98701,17.82488 l 32.48785,13.93199 22.78025,-10.15022 c 27.65353,-12.3216 60.81926,-24.89104 62.15446,-23.55583 0.53687,0.53687 -0.52036,6.27108 -2.34942,12.74269 -6.27388,22.19841 -48.52108,148.13716 -49.69384,148.13716 -0.91546,0 -22.98265,-66.77956 -29.91393,-90.5253 -1.00671,-3.44888 -5.21876,7.65252 -16.18359,42.65399 -8.15247,26.02398 -15.45497,48.33939 -16.22777,49.58981 -0.7728,1.25042 -12.11893,-31.12637 -25.21363,-71.94841 z"
       id="path4023"
       style="fill:#ffffff;fill-opacity:1;stroke:#ffffff;stroke-width:5.77201176;stroke-miterlimit:4;stroke-opacity:0;stroke-dasharray:none" />
    <path
       d="m 380.23812,570.05587 c -9.10767,-18.16501 -16.56019,-35.21134 -16.56116,-37.88072 -0.004,-11.93324 14.95685,-96.04293 17.63642,-99.14954 3.53685,-4.10052 28.36703,-14.92897 30.14831,-13.14769 1.55313,1.55313 -11.80826,183.20524 -13.47563,183.20524 -0.6537,0 -8.64028,-14.86228 -17.74794,-33.02729 z"
       id="path4025"
       style="fill:#ffffff;fill-opacity:1;stroke:#ffffff;stroke-width:5.77201176;stroke-miterlimit:4;stroke-opacity:0;stroke-dasharray:none" />
    <path
       d="m 471.97998,588.2388 c -23.01379,-4.29446 -34.76317,-7.37494 -36.07348,-9.45782 -1.30998,-2.08235 0.10524,-16.89579 4.34273,-45.45687 3.45729,-23.30233 6.28058,-44.24741 6.27399,-46.54461 -0.01,-3.27754 -2.35704,-4.91595 -10.90469,-7.61035 -12.34137,-3.89028 -14.81715,-6.15047 -16.62196,-15.17451 -1.15702,-5.78511 -0.8106,-6.37344 3.75286,-6.37344 2.76515,0 9.86576,0.91755 15.77912,2.03899 12.70273,2.40902 13.18268,1.96037 15.04222,-14.0615 l 1.30866,-11.27555 16.52403,-6.37129 c 9.08821,-3.50421 18.68939,-6.99825 21.33594,-7.76452 5.4715,-1.58419 5.53654,-2.7587 -1.59226,28.75123 -2.06198,9.11415 -3.25114,17.0691 -2.64257,17.67767 0.60858,0.60857 2.92606,1.10649 5.14998,1.10649 2.22391,0 9.80006,1.00247 16.83587,2.2277 l 12.7924,2.2277 -0.0276,14.43982 c -0.0151,7.9419 -0.55749,16.41548 -1.20516,18.83018 -1.11923,4.17281 -1.59338,4.26094 -9.56886,1.77849 -4.61521,-1.43652 -14.33315,-4.88911 -21.59542,-7.6724 -11.4966,-4.40612 -13.22104,-4.63611 -13.33478,-1.7785 -0.0718,1.80513 -2.59533,12.75837 -5.60772,24.34054 l -5.4771,21.0585 23.35755,23.41856 c 12.84665,12.88021 23.35754,24.54133 23.35754,25.9136 0,3.29896 -1.46084,3.14763 -41.20131,-4.26811 l 0,0 z m 2.26835,-95.47271 c -0.67133,-0.67133 -2.41384,-0.74311 -3.87225,-0.15951 -1.61166,0.64494 -1.13294,1.12366 1.2206,1.22061 2.12974,0.0877 3.32298,-0.38978 2.65165,-1.06111 l 0,1e-5 z m -9.72272,-3.53024 c -2.49641,-2.10623 -13.97377,-4.877 -13.97377,-3.37342 0,0.97189 1.59099,2.18284 3.53553,2.691 4.45104,1.16318 11.55883,1.62787 10.43824,0.68242 z"
       id="path4027"
       style="fill:#ffffff;fill-opacity:1;stroke:#ffffff;stroke-width:5.77201176;stroke-miterlimit:4;stroke-opacity:0;stroke-dasharray:none" />
    <path
       d=""
       id="path4029"
       style="fill:#ffffff;fill-opacity:1;stroke:#ffffff;stroke-width:5.77201176;stroke-miterlimit:4;stroke-opacity:0;stroke-dasharray:none" />
    <path
       d="m 509.18426,617.25223 c -1.27488,-0.78792 25.05228,-27.55805 62.51666,-63.56856 35.59544,-34.2141 64.71898,-63.0063 64.71898,-63.98267 0,-2.40462 -4.39706,-2.23083 -54.54823,2.15589 -23.89011,2.08966 -43.64441,3.59469 -43.89844,3.34451 -1.22185,-1.20333 81.13593,-67.88478 83.844,-67.88478 1.9213,0 12.65491,13.03566 38.53894,46.80444 l 16.51873,21.55063 -35.88486,28.44226 c -45.60273,36.14463 -45.5104,36.06435 -44.10028,38.34598 0.6513,1.05383 12.76673,5.73825 26.92316,10.40982 14.15643,4.67157 26.44169,9.1286 27.30057,9.90453 0.85888,0.77592 -2.77767,2.43163 -8.08122,3.67937 -5.30355,1.24773 -37.09347,8.9941 -70.64426,17.21415 -33.55079,8.22004 -61.99248,14.33304 -63.20375,13.58443 l 0,0 z"
       id="path4031"
       style="fill:#ffffff;fill-opacity:1;stroke:#ffffff;stroke-width:5.77201176;stroke-miterlimit:4;stroke-opacity:0;stroke-dasharray:none" />
    <path
       d="m 519.35097,608.00083 c 3.82927,-3.96229 31.7363,-31.88132 62.01562,-62.04229 30.27932,-30.16096 55.05331,-55.55691 55.05331,-56.43544 0,-2.34083 -14.69912,-1.97008 -56.45548,1.42394 -20.4437,1.6617 -37.40591,2.78573 -37.6938,2.49784 -1.3467,-1.3467 76.71307,-64.10795 79.73474,-64.10795 1.38984,0 32.90329,39.05241 46.69268,57.86297 l 6.13246,8.3655 -39.40835,31.56702 c -21.67459,17.36187 -39.40835,32.74238 -39.40835,34.17892 0,1.50375 10.32329,6.34713 24.33184,11.41578 13.38251,4.84213 24.75084,9.48184 25.26295,10.31045 1.09558,1.77269 -122.32861,32.16742 -130.62258,32.16742 -1.42854,0 0.53569,-3.24187 4.36496,-7.20416 z"
       id="path4033"
       style="fill:#ffffff;fill-opacity:1;stroke:#ffffff;stroke-width:5.77201176;stroke-miterlimit:4;stroke-opacity:0;stroke-dasharray:none" />
    <path
       d="m 198.82495,595.81758 c -2.9161,-6.56003 -23.80287,-56.80825 -46.41505,-111.66271 -22.61218,-54.85447 -42.53287,-101.90232 -44.26821,-104.55079 -3.83303,-5.84994 -4.82827,-5.86854 -41.44782,-0.77478 -41.761533,5.80901 -38.961127,6.37838 -37.262412,-7.57615 2.791274,-22.92962 6.175606,-37.58144 9.066748,-39.25274 2.715318,-1.56966 180.357054,-45.2765 220.608324,-54.27832 20.39448,-4.56103 23.75998,-4.79837 23.75998,-1.67562 0,1.25016 -5.55426,16.31573 -12.34283,33.47904 -9.12446,23.06913 -13.47046,31.67752 -16.66751,33.01434 -2.37857,0.99459 -14.3252,3.22398 -26.54805,4.95422 -12.22284,1.73023 -27.92397,4.13021 -34.89138,5.33328 l -12.66803,2.1874 1.12499,9.38189 c 5.33849,44.52062 25.076,241.52548 24.2779,242.32358 -0.56356,0.56356 -3.41055,-4.34263 -6.32665,-10.90264 l 0,0 z"
       id="path4035"
       style="fill:#ffffff;fill-opacity:1;stroke:#ffffff;stroke-width:5.77201176;stroke-miterlimit:4;stroke-opacity:0;stroke-dasharray:none" />
    <path
       d="M 201.36134,601.67622 C 199.70518,598.47356 183.17736,559.06888 164.63287,514.11028 115.22556,394.329 109.1643,380.12796 106.12873,377.03985 c -2.34431,-2.38489 -8.158701,-2.10684 -39.251031,1.87707 -20.074482,2.57218 -37.087391,4.08835 -37.806463,3.36928 -1.987924,-1.98792 5.381458,-47.49099 8.031119,-49.58904 3.387427,-2.68222 234.519345,-58.89926 242.228625,-58.91603 1.94454,-0.004 3.53553,1.01517 3.53553,2.26534 0,1.25016 -5.55426,16.31573 -12.34283,33.47904 -9.14776,23.12802 -13.4623,31.66775 -16.66751,32.98978 -2.37857,0.98109 -19.71232,4.10633 -38.51945,6.945 -18.80711,2.83866 -34.45226,5.41871 -34.76699,5.73345 -0.31474,0.31473 5.31198,56.8124 12.50381,125.55037 7.19183,68.73796 12.67622,125.37796 12.18754,125.86665 -0.48869,0.48867 -2.24357,-1.73187 -3.89974,-4.93454 l 0,0 z"
       id="path4037"
       style="fill:#ffffff;fill-opacity:1;stroke:#ffffff;stroke-width:5.77201176;stroke-miterlimit:4;stroke-opacity:0;stroke-dasharray:none" />
    <path
       d="m 381.90009,569.96111 c -10.55925,-20.86622 -14.98239,-31.89664 -15.6031,-38.91093 -0.84428,-9.54086 5.77112,-53.24071 12.59944,-83.22903 l 3.38152,-14.8508 13.0234,-6.09438 c 7.16286,-3.35191 13.59775,-5.52003 14.29974,-4.81804 1.90625,1.90625 -10.21004,174.27061 -12.40455,176.46512 -0.3078,0.30779 -7.1912,-12.54508 -15.29645,-28.56194 z"
       id="path4039"
       style="fill:#ffffff;fill-opacity:1;stroke:#ffffff;stroke-width:5.77201176;stroke-miterlimit:4;stroke-opacity:0;stroke-dasharray:none" />
    <path
       d="m 475.80565,587.8309 c -35.84572,-7.00413 -39.39595,-8.25739 -39.39595,-13.90709 0,-2.61442 2.26941,-21.44252 5.04313,-41.84023 7.04317,-51.79485 7.38015,-48.8071 -6.1229,-54.28759 -11.04941,-4.48462 -15.08267,-8.56795 -15.08267,-15.26988 0,-3.05883 1.68847,-3.28893 15.16966,-2.0673 15.01975,1.36106 15.18946,1.32258 17.1726,-3.89346 1.10161,-2.89746 2.00293,-8.27959 2.00293,-11.96028 0,-3.6807 1.26087,-7.73861 2.80195,-9.01758 3.57342,-2.96568 35.80677,-14.7823 37.0183,-13.57076 0.50048,0.50048 -1.05416,10.6131 -3.45476,22.47248 -2.4006,11.85939 -3.92925,21.998 -3.397,22.53026 0.53226,0.53225 8.56014,2.04465 17.83973,3.36088 l 16.872,2.39314 -0.68588,16.16244 c -0.37724,8.88934 -1.28637,16.77794 -2.02031,17.53021 -0.73393,0.75228 -8.98015,-1.29328 -18.32493,-4.54568 -21.27654,-7.4052 -23.99999,-7.44322 -25.61547,-0.35763 -0.69669,3.05571 -3.32169,13.87527 -5.83333,24.04347 l -4.56661,18.48762 19.07086,18.88802 c 10.48898,10.38841 20.88623,21.38815 23.105,24.44386 l 4.03413,5.55584 -5.69341,-0.2068 c -3.13137,-0.11375 -16.60306,-2.33852 -29.93707,-4.94394 z m -1.55732,-95.06481 c -0.67133,-0.67133 -2.41384,-0.74311 -3.87225,-0.15951 -1.61166,0.64494 -1.13294,1.12366 1.2206,1.22061 2.12974,0.0877 3.32298,-0.38978 2.65165,-1.06111 l 0,1e-5 z m -15.34522,-6.11697 c -7.0041,-3.05595 -9.75705,-2.6324 -7.42419,1.14224 0.73243,1.1851 4.23273,2.08056 7.77845,1.98991 l 6.44675,-0.1648 -6.80101,-2.96735 z"
       id="path4041"
       style="fill:#ffffff;fill-opacity:1;stroke:#ffffff;stroke-width:5.77201176;stroke-miterlimit:4;stroke-opacity:0;stroke-dasharray:none" />
  </g>
</svg>
